<svg width="1059" height="1059" viewBox="0 0 1059 1059" fill="none" xmlns="http://www.w3.org/2000/svg">
<circle cx="538" cy="538" r="521" fill="#777777" fill-opacity="0.46"/>
<circle cx="521" cy="521" r="521" fill="url(#paint0_linear_474_35)"/>
<g filter="url(#filter0_d_474_35)">
<path d="M506.323 303.042V640.052L527.536 676.794H403.99L424.504 641.263V301.832L403.99 266.301H527.536L506.323 303.042Z" fill="url(#paint1_linear_474_35)"/>
<path d="M660.171 303.042V640.052L681.384 676.794H557.838L578.351 641.263V301.832L557.838 266.301H681.384L660.171 303.042Z" fill="url(#paint2_linear_474_35)"/>
<path d="M814.018 303.742V640.752L835.231 677.494H711.685L732.199 641.963V302.531L711.685 267.001H835.231L814.018 303.742Z" fill="url(#paint3_linear_474_35)"/>
<path d="M333.55 730.979L359.99 776.776H206L231.569 732.487V521.388H333.55V730.979Z" fill="url(#paint4_linear_474_35)"/>
<path d="M232.441 311.797L206 266L359.991 266L334.421 310.288L334.421 521.388L232.441 521.388L232.441 311.797Z" fill="#939393"/>
</g>
<defs>
<filter id="filter0_d_474_35" x="206" y="266" width="668.631" height="542.176" filterUnits="userSpaceOnUse" color-interpolation-filters="sRGB">
<feFlood flood-opacity="0" result="BackgroundImageFix"/>
<feColorMatrix in="SourceAlpha" type="matrix" values="0 0 0 0 0 0 0 0 0 0 0 0 0 0 0 0 0 0 127 0" result="hardAlpha"/>
<feOffset dx="29" dy="21"/>
<feGaussianBlur stdDeviation="5.2"/>
<feComposite in2="hardAlpha" operator="out"/>
<feColorMatrix type="matrix" values="0 0 0 0 0 0 0 0 0 0 0 0 0 0 0 0 0 0 0.1 0"/>
<feBlend mode="normal" in2="BackgroundImageFix" result="effect1_dropShadow_474_35"/>
<feBlend mode="normal" in="SourceGraphic" in2="effect1_dropShadow_474_35" result="shape"/>
</filter>
<linearGradient id="paint0_linear_474_35" x1="146.5" y1="-126.5" x2="1088" y2="1093.5" gradientUnits="userSpaceOnUse">
<stop offset="0.0419342" stop-color="white"/>
<stop offset="0.718103" stop-color="#D8D8D8"/>
<stop offset="1" stop-color="#C8C8C8"/>
</linearGradient>
<linearGradient id="paint1_linear_474_35" x1="465.763" y1="266.301" x2="465.763" y2="676.794" gradientUnits="userSpaceOnUse">
<stop stop-color="#737373"/>
<stop offset="1" stop-color="#787878"/>
</linearGradient>
<linearGradient id="paint2_linear_474_35" x1="619.611" y1="266.301" x2="619.611" y2="676.794" gradientUnits="userSpaceOnUse">
<stop stop-color="#737373"/>
<stop offset="1" stop-color="#787878"/>
</linearGradient>
<linearGradient id="paint3_linear_474_35" x1="773.458" y1="267.001" x2="773.458" y2="677.494" gradientUnits="userSpaceOnUse">
<stop stop-color="#737373"/>
<stop offset="1" stop-color="#787878"/>
</linearGradient>
<linearGradient id="paint4_linear_474_35" x1="282.995" y1="265.128" x2="282.995" y2="776.775" gradientUnits="userSpaceOnUse">
<stop stop-color="white"/>
<stop offset="1" stop-color="#C4C4C4"/>
</linearGradient>
</defs>
</svg>
