<svg width="591" height="592" viewBox="0 0 591 592" fill="none" xmlns="http://www.w3.org/2000/svg">
<g filter="url(#filter0_d_480_7)">
<path d="M267.875 316.625L243.5 341.125C241.178 343.438 239.336 346.19 238.084 349.22C236.831 352.25 236.193 355.497 236.204 358.776C236.216 362.055 236.878 365.298 238.151 368.32C239.425 371.34 241.286 374.078 243.625 376.375C245.934 378.703 248.678 380.553 251.703 381.82C254.726 383.085 257.971 383.741 261.25 383.75C264.529 383.741 267.774 383.085 270.798 381.82C273.823 380.553 276.568 378.703 278.875 376.375L345.5 309.375L345.75 309.125C346.483 308.392 347.153 307.597 347.75 306.75C348.531 305.787 349.203 304.738 349.75 303.625C350.175 302.901 350.55 302.15 350.875 301.375C351.064 300.967 351.23 300.55 351.375 300.125C351.825 298.908 352.159 297.653 352.375 296.375C352.734 294.818 352.901 293.223 352.875 291.625C352.901 290.027 352.734 288.432 352.375 286.875V286.625C352 285.25 351.625 283.875 351.125 282.5C350.794 281.525 350.331 280.6 349.75 279.75C349.211 278.461 348.45 277.276 347.5 276.25C346.901 275.443 346.231 274.69 345.5 274V273.875L278.875 207.625C276.545 205.308 273.781 203.475 270.743 202.227C267.703 200.98 264.448 200.343 261.161 200.356C257.876 200.367 254.625 201.026 251.595 202.295C248.564 203.563 245.814 205.417 243.5 207.751C241.184 210.081 239.35 212.843 238.103 215.883C236.855 218.922 236.219 222.178 236.23 225.463C236.243 228.748 236.901 232 238.17 235.031C239.439 238.061 241.293 240.811 243.625 243.125L267.25 266.625H4.00002C10.3038 193.903 43.6313 126.185 97.4075 76.8284C151.185 27.4709 221.506 0.05875 294.5 0C371.838 0.0595 445.991 30.7996 500.689 85.4734C555.386 140.147 586.157 214.288 586.25 291.625C586.157 368.962 555.386 443.103 500.689 497.777C445.991 552.451 371.838 583.191 294.5 583.25C221.506 583.191 151.185 555.78 97.4075 506.422C43.6313 457.065 10.3038 389.346 4.00002 316.625H267.875Z" fill="#868686"/>
</g>
<defs>
<filter id="filter0_d_480_7" x="0" y="0" width="590.25" height="591.25" filterUnits="userSpaceOnUse" color-interpolation-filters="sRGB">
<feFlood flood-opacity="0" result="BackgroundImageFix"/>
<feColorMatrix in="SourceAlpha" type="matrix" values="0 0 0 0 0 0 0 0 0 0 0 0 0 0 0 0 0 0 127 0" result="hardAlpha"/>
<feOffset dy="4"/>
<feGaussianBlur stdDeviation="2"/>
<feComposite in2="hardAlpha" operator="out"/>
<feColorMatrix type="matrix" values="0 0 0 0 0 0 0 0 0 0 0 0 0 0 0 0 0 0 0.25 0"/>
<feBlend mode="normal" in2="BackgroundImageFix" result="effect1_dropShadow_480_7"/>
<feBlend mode="normal" in="SourceGraphic" in2="effect1_dropShadow_480_7" result="shape"/>
</filter>
</defs>
</svg>
