<svg width="667" height="655" viewBox="0 0 667 655" fill="none" xmlns="http://www.w3.org/2000/svg">
<path d="M628.773 206.209L397.773 21.5418C362.107 -7.12482 304.44 -7.12482 269.107 21.2085L38.1065 206.209C12.1065 226.875 -4.56017 270.54 1.10649 303.207L45.4398 568.54C53.4398 615.874 98.7732 654.207 146.773 654.207H520.107C567.773 654.207 613.44 615.54 621.44 568.54L665.773 303.207C671.107 270.54 654.44 226.875 628.773 206.209ZM333.44 443.873C287.44 443.873 250.106 406.54 250.106 360.54C250.106 314.54 287.44 277.207 333.44 277.207C379.44 277.207 416.773 314.54 416.773 360.54C416.773 406.54 379.44 443.873 333.44 443.873Z" fill="#4A5565"/>
</svg>
